<svg width="500" height="500" viewBox="0 0 500 500" fill="none" xmlns="http://www.w3.org/2000/svg">
<g clip-path="url(#clip0_158_1301)">
<path d="M400 0H100C44.7715 0 0 44.7715 0 100V400C0 455.228 44.7715 500 100 500H400C455.228 500 500 455.228 500 400V100C500 44.7715 455.228 0 400 0Z" fill="#A1FF14"/>
<path d="M302.985 263C325.076 263 343.761 281.736 334.405 301.748C319.701 333.197 287.653 355 250.485 355C213.316 355 181.268 333.197 166.564 301.748C157.208 281.736 175.893 263 197.985 263H302.985Z" fill="#5314FF"/>
<path d="M189.985 145C212.076 145 230.761 163.707 221.575 183.798C206.95 215.788 174.797 238 137.485 238C100.172 238 68.0194 215.788 53.394 183.798C44.2085 163.707 62.8932 145 84.9846 145H189.985Z" fill="#5314FF"/>
<path d="M415.985 145C438.076 145 456.761 163.707 447.575 183.798C432.95 215.788 400.797 238 363.485 238C326.172 238 294.019 215.788 279.394 183.798C270.208 163.707 288.893 145 310.985 145H415.985Z" fill="#5314FF"/>
</g>
<defs>
<clipPath id="clip0_158_1301">
<rect width="500" height="500" fill="white"/>
</clipPath>
</defs>
</svg>
