<svg width="500" height="500" viewBox="0 0 500 500" fill="none" xmlns="http://www.w3.org/2000/svg">
  <style>
    @media(prefers-color-scheme: light) {
      --_bg: #A1FF14;
      --_fg: #5314FF;
    }
    @media(prefers-color-scheme: dark) {
      --_bg: #08001F;
      --_fg: #A1FF14;
    }
  </style>
  <rect width="100%" height="100%" fill="#A1FF14"/>
  <path d="M289.477 319C306.088 319 320.138 304.923 313.103 289.887C302.046 266.258 277.948 249.876 250 249.876C222.052 249.876 197.954 266.258 186.897 289.887C179.862 304.923 193.912 319 210.523 319H289.477Z" fill="#5314FF"/>
  <path d="M204.508 180C221.119 180 235.169 194.056 228.262 209.151C217.265 233.187 193.088 249.876 165.031 249.876C136.974 249.876 112.798 233.187 101.8 209.151C94.8932 194.056 108.943 180 125.554 180H204.508Z" fill="#5314FF"/>
  <path d="M374.446 180C391.057 180 405.107 194.056 398.2 209.151C387.203 233.187 363.026 249.876 334.969 249.876C306.912 249.876 282.735 233.187 271.738 209.151C264.831 194.056 278.881 180 295.492 180H374.446Z" fill="#5314FF"/>
</svg>
